<svg xmlns="http://www.w3.org/2000/svg" width="502" height="136">
  <g fill="#12283A" fill-rule="evenodd">
    <path d="M335.168 63.421c0-4.593 1.558-8.429 4.673-11.506 3.116-3.077 7.106-4.615 11.972-4.615 4.867 0 8.858 1.538 11.973 4.615 3.116 3.077 4.673 6.913 4.673 11.506 0 4.712-1.557 8.643-4.673 11.793-3.115 3.151-7.106 4.727-11.973 4.727-4.866 0-8.856-1.576-11.972-4.727-3.115-3.15-4.673-7.081-4.673-11.793zm8.056 0c0 2.71.808 4.962 2.425 6.758 1.617 1.796 3.672 2.694 6.164 2.694 2.493 0 4.548-.898 6.166-2.694 1.616-1.796 2.424-4.049 2.424-6.758 0-2.591-.808-4.748-2.424-6.47-1.618-1.723-3.673-2.584-6.166-2.584-2.492 0-4.547.86-6.164 2.583-1.617 1.723-2.425 3.88-2.425 6.471zM371.71 85.815V59.093c0-1.62.815-2.43 2.447-2.43h2.003c.77 0 1.371.184 1.802.553.43.368.646.846.646 1.435v.486l-.045.442h.09c.059-.089.147-.214.266-.376.119-.162.385-.442.802-.839.415-.398.86-.744 1.334-1.038.475-.294 1.12-.567 1.937-.817a8.828 8.828 0 0 1 2.603-.376c3.116 0 5.615 1.097 7.5 3.291 1.884 2.194 2.826 5.072 2.826 8.635 0 3.563-1.01 6.434-3.027 8.613-2.018 2.18-4.57 3.269-7.654 3.269-1.217 0-2.316-.221-3.295-.663-.979-.442-1.647-.869-2.003-1.28l-.534-.663h-.089c.06.53.09 1.177.09 1.943v6.537c0 1.62-.816 2.43-2.449 2.43h-2.803c-1.632 0-2.448-.81-2.448-2.43zm7.476-17.623c0 1.472.393 2.745 1.18 3.82.785 1.075 1.892 1.612 3.316 1.612 1.275 0 2.343-.485 3.204-1.457.86-.972 1.29-2.297 1.29-3.975 0-1.679-.414-3.033-1.246-4.064-.83-1.03-1.914-1.546-3.248-1.546-1.277 0-2.345.471-3.205 1.413-.86.943-1.29 2.341-1.29 4.197zM400.55 71.328v-8.304h-.668c-1.603 0-2.403-.81-2.403-2.43V59.49c0-1.62.815-2.43 2.447-2.43h.846v-4.107c0-1.62.816-2.43 2.449-2.43h2.58c1.632 0 2.45.81 2.45 2.43v4.108h2.358c1.632 0 2.447.81 2.447 2.43v1.103c0 1.62-.8 2.43-2.403 2.43h-2.403v6.89c0 1.679.89 2.636 2.67 2.871.92.118 1.558.346 1.913.685.357.338.535.92.535 1.744v1.988c0 1.62-1.054 2.43-3.16 2.43-.742 0-1.513-.067-2.315-.2-.8-.132-1.646-.39-2.537-.772a9.093 9.093 0 0 1-2.38-1.48c-.698-.604-1.277-1.406-1.736-2.407-.46-1.001-.69-2.15-.69-3.445zM419.287 53.792c-1.631 0-2.448-.81-2.448-2.429V50.26c0-1.62.817-2.43 2.448-2.43h2.626c1.632 0 2.448.81 2.448 2.43v1.104c0 1.62-.816 2.43-2.448 2.43h-2.626zm-2.536 23.19v-17.89c0-1.619.816-2.429 2.448-2.429h2.803c1.633 0 2.448.81 2.448 2.43V76.98c0 1.62-.815 2.43-2.448 2.43H419.2c-1.632 0-2.448-.81-2.448-2.43zM431.438 76.672c-2.492-2.208-3.738-5.065-3.738-8.569 0-3.504 1.246-6.375 3.738-8.613 2.492-2.238 5.564-3.357 9.214-3.357 3.678 0 6.772 1.112 9.28 3.335 2.507 2.223 3.76 5.102 3.76 8.635 0 3.504-1.246 6.353-3.739 8.547-2.492 2.194-5.578 3.29-9.257 3.29-3.68 0-6.766-1.089-9.258-3.268zm4.05-8.569c0 1.65.505 2.974 1.514 3.975 1.008 1.002 2.24 1.502 3.694 1.502 1.454 0 2.685-.5 3.694-1.502 1.008-1 1.513-2.326 1.513-3.975 0-1.678-.505-3.033-1.513-4.063-1.01-1.031-2.24-1.546-3.694-1.546-1.454 0-2.686.515-3.694 1.546-1.01 1.03-1.514 2.385-1.514 4.063zM456.94 76.981V59.093c0-1.62.818-2.43 2.449-2.43h2.492c1.603 0 2.403.81 2.403 2.43v.397l-.043.574h.088c1.573-2.62 4.006-3.93 7.3-3.93 5.49 0 8.233 2.841 8.233 8.524v12.323c0 1.62-.815 2.43-2.448 2.43h-2.803c-1.632 0-2.448-.81-2.448-2.43v-10.91c0-2.002-.846-3.003-2.537-3.003-1.632 0-2.871.574-3.716 1.723-.847 1.148-1.269 2.59-1.269 4.328v7.862c0 1.62-.817 2.43-2.448 2.43h-2.804c-1.631 0-2.448-.81-2.448-2.43zM484.091 77.865c-1.365-.766-1.573-1.885-.623-3.357l.668-1.016c.8-1.149 1.928-1.384 3.382-.707 1.81.795 3.263 1.193 4.361 1.193 1.395 0 2.092-.427 2.092-1.281 0-.471-.37-.869-1.113-1.193a25.636 25.636 0 0 0-2.692-.971 26.324 26.324 0 0 1-3.138-1.193c-1.038-.471-1.928-1.222-2.67-2.253-.742-1.03-1.112-2.282-1.112-3.754 0-2.267.896-4.034 2.692-5.3 1.795-1.267 4.072-1.9 6.831-1.9 2.256 0 4.422.486 6.498 1.458 1.336.648 1.633 1.737.891 3.269l-.534 1.06c-.623 1.295-1.706 1.649-3.25 1.06-1.572-.59-2.877-.884-3.916-.884-1.364 0-2.047.398-2.047 1.193 0 .47.37.861 1.113 1.17.74.31 1.639.619 2.692.928 1.054.309 2.1.7 3.138 1.17 1.038.471 1.928 1.208 2.67 2.209.742 1.001 1.114 2.238 1.114 3.71 0 2.18-.854 3.968-2.56 5.367-1.706 1.398-3.998 2.098-6.876 2.098-2.67 0-5.208-.692-7.611-2.076z"/>
    <g>
      <path d="M338 124.539V97.462c0-1.641.83-2.462 2.49-2.462h10.96c3.139 0 5.683 1.03 7.63 3.088 1.947 2.059 2.92 4.7 2.92 7.922 0 3.252-.973 5.915-2.92 7.989-1.947 2.073-4.491 3.11-7.63 3.11h-5.525v7.43c0 1.64-.83 2.461-2.491 2.461h-2.943c-1.66 0-2.491-.82-2.491-2.461zm7.925-14.143h3.894c1.328 0 2.348-.403 3.057-1.209.71-.805 1.064-1.864 1.064-3.177s-.348-2.357-1.041-3.133c-.695-.776-1.676-1.164-2.944-1.164h-4.03v8.683zM363 120.01c0-1.455.413-2.717 1.239-3.786.828-1.068 1.922-1.885 3.285-2.448a19.832 19.832 0 0 1 4.248-1.225c1.47-.252 3-.379 4.594-.379h.688v-.4c0-1.692-1.117-2.538-3.353-2.538-1.317 0-2.74.341-4.271 1.024-1.562.653-2.694.297-3.399-1.069l-.552-1.113c-.734-1.484-.397-2.583 1.01-3.295 2.665-1.187 5.313-1.781 7.947-1.781 3.277 0 5.856.831 7.739 2.493 1.884 1.663 2.825 3.948 2.825 6.858v11.666c0 1.632-.843 2.449-2.526 2.449h-2.205c-1.684 0-2.527-.831-2.527-2.494v-.178l.046-.445h-.092c-.06.089-.152.215-.274.378-.123.163-.4.46-.828.89-.429.431-.887.802-1.377 1.114-.49.312-1.141.601-1.953.868-.811.267-1.66.401-2.548.401-2.267 0-4.118-.668-5.557-2.004-1.44-1.336-2.159-2.998-2.159-4.987zm7.854-.713c0 .564.199 1.031.597 1.402.397.371.949.557 1.654.557 1.102 0 2.05-.43 2.847-1.291.796-.861 1.194-1.781 1.194-2.76v-.624h-.734c-1.47 0-2.765.215-3.882.645-1.117.43-1.676 1.12-1.676 2.07zM391.544 130.358c.568-1.462 1.615-1.94 3.14-1.433 1.316.418 2.691.627 4.127.627 3.618 0 5.428-1.477 5.428-4.433v-1.164l.045-.85h-.09c-1.285 1.88-3.17 2.82-5.652 2.82-3.35 0-5.944-1.134-7.784-3.403-1.839-2.268-2.758-5-2.758-8.194 0-3.164.911-5.843 2.736-8.037 1.824-2.194 4.441-3.291 7.85-3.291.928 0 1.78.104 2.558.313.778.21 1.383.456 1.816.74.434.283.808.574 1.122.872.314.299.53.553.651.762l.178.313h.09a1.926 1.926 0 0 1-.045-.448v-.09c0-.567.218-1.03.652-1.387.433-.359 1.038-.538 1.816-.538h2.108c1.645 0 2.468.821 2.468 2.463v18.492c0 2-.382 3.777-1.144 5.329-.762 1.552-1.78 2.761-3.05 3.627a14.255 14.255 0 0 1-4.061 1.925c-1.435.418-2.93.627-4.485.627-2.782 0-5.07-.373-6.864-1.12-1.465-.596-1.914-1.656-1.346-3.178l.494-1.344zm8.703-10.88c1.196 0 2.19-.381 2.983-1.142.792-.761 1.189-2.067 1.189-3.918 0-3.314-1.496-4.97-4.486-4.97-1.316 0-2.333.425-3.05 1.276-.72.85-1.077 1.963-1.077 3.336 0 1.552.374 2.843 1.121 3.873.748 1.03 1.854 1.545 3.32 1.545zM415 114.978c0-3.444 1.106-6.3 3.318-8.572 2.211-2.27 5.167-3.406 8.864-3.406 3.364 0 6.007 1.032 7.932 3.095 1.924 2.063 2.886 4.682 2.886 7.859 0 .623-.258 1.202-.772 1.736-.516.534-1.137.802-1.865.802h-12.317c.272 1.335.915 2.352 1.931 3.05 1.015.697 2.189 1.046 3.523 1.046 1.394 0 2.818-.356 4.273-1.069 1.545-.682 2.666-.37 3.364.936l.636 1.157c.788 1.484.5 2.598-.864 3.34-2.455 1.365-5.137 2.048-8.046 2.048-3.97 0-7.106-1.187-9.408-3.562-2.304-2.375-3.455-5.195-3.455-8.46zm8.227-2.895h7c0-.98-.296-1.795-.886-2.449-.592-.653-1.372-.98-2.341-.98-2 0-3.258 1.144-3.773 3.43zM442.19 124.907c-1.345-.772-1.55-1.9-.613-3.384l.657-1.024c.79-1.158 1.902-1.395 3.336-.712 1.785.801 3.218 1.202 4.301 1.202 1.376 0 2.063-.43 2.063-1.291 0-.475-.366-.876-1.097-1.203a24.94 24.94 0 0 0-2.656-.98 25.704 25.704 0 0 1-3.094-1.201c-1.024-.475-1.901-1.232-2.633-2.271-.731-1.04-1.097-2.3-1.097-3.785 0-2.286.885-4.067 2.655-5.343 1.77-1.277 4.015-1.915 6.737-1.915 2.223 0 4.36.49 6.408 1.47 1.317.652 1.61 1.75.878 3.294l-.526 1.069c-.616 1.306-1.683 1.662-3.204 1.069-1.551-.594-2.839-.89-3.864-.89-1.345 0-2.018.4-2.018 1.201 0 .475.365.869 1.097 1.18.731.312 1.617.624 2.656.935 1.038.312 2.07.705 3.094 1.18s1.901 1.217 2.633 2.227c.731 1.009 1.097 2.256 1.097 3.74 0 2.197-.841 4-2.523 5.41-1.683 1.41-3.943 2.115-6.781 2.115-2.634 0-5.135-.698-7.506-2.093z"/>
    </g>
    <g>
      <path d="M337.602 30.999l9.156-27.692c.443-1.368 1.357-2.053 2.743-2.053h3.98c1.386 0 2.3.685 2.743 2.053L365.38 31c.295.852.258 1.544-.11 2.076-.37.532-.996.798-1.88.798h-2.92c-1.385 0-2.3-.7-2.742-2.098L356.4 27.03h-9.864l-1.326 4.745c-.384 1.398-1.284 2.098-2.699 2.098h-2.92c-.883 0-1.51-.266-1.88-.798-.368-.532-.405-1.224-.11-2.076zm10.748-10.356h6.238l-1.77-6.34-1.282-5.612h-.089c-.472 2.372-.9 4.243-1.282 5.611l-1.815 6.341zM369.272 31.045c-1.857-2.281-2.786-5.262-2.786-8.942 0-3.68.965-6.645 2.897-8.896 1.931-2.25 4.43-3.375 7.498-3.375.855 0 1.643.083 2.366.25.722.167 1.297.358 1.725.57.427.214.789.434 1.083.662.296.228.501.418.62.57l.177.274h.089c-.03-.304-.045-.654-.045-1.05V3.766c0-1.673.81-2.51 2.433-2.51h2.786c1.622 0 2.433.837 2.433 2.51v27.599c0 1.673-.81 2.51-2.433 2.51h-2.3c-1.622 0-2.432-.761-2.432-2.282v-.274l.044-.319h-.088c-.06.091-.14.213-.244.365-.103.152-.346.426-.73.821a7.661 7.661 0 0 1-1.26 1.05c-.457.303-1.077.577-1.858.82a8.37 8.37 0 0 1-2.5.365c-3.096 0-5.588-1.125-7.475-3.375zm6.193-13.047c-.856 1.003-1.283 2.372-1.283 4.105 0 1.734.413 3.133 1.24 4.197.824 1.065 1.9 1.597 3.227 1.597 1.27 0 2.33-.487 3.186-1.46.854-.973 1.282-2.418 1.282-4.334 0-1.52-.39-2.836-1.172-3.946-.781-1.11-1.88-1.665-3.296-1.665-1.267 0-2.329.502-3.184 1.506zM395.104 31.364V12.888c0-1.673.81-2.509 2.433-2.509h2.477c1.592 0 2.388.836 2.388 2.51v.41l-.044.593h.088c1.74-2.707 3.996-4.06 6.768-4.06 3.038 0 5.16 1.322 6.37 3.968h.088c.648-1.095 1.63-2.03 2.941-2.805 1.313-.776 2.765-1.163 4.357-1.163 2.24 0 4.032.699 5.375 2.098 1.341 1.4 2.012 3.635 2.012 6.707v12.727c0 1.673-.81 2.51-2.433 2.51h-2.786c-1.622 0-2.433-.837-2.433-2.51V19.959c0-1.977-.59-2.965-1.77-2.965-1.533 0-2.646.661-3.34 1.984-.692 1.323-1.038 2.973-1.038 4.95v7.436c0 1.673-.81 2.51-2.433 2.51h-2.787c-1.621 0-2.433-.837-2.433-2.51V19.959c0-1.977-.589-2.965-1.769-2.965-1.592 0-2.72.668-3.384 2.007-.663 1.338-.994 2.98-.994 4.927v7.436c0 1.673-.812 2.51-2.433 2.51h-2.787c-1.623 0-2.433-.837-2.433-2.51zM437.08 7.413c-1.621 0-2.432-.836-2.432-2.509v-1.14c0-1.672.81-2.51 2.433-2.51h2.609c1.622 0 2.432.838 2.432 2.51v1.14c0 1.673-.81 2.51-2.432 2.51h-2.61zm-2.52 23.951V12.888c0-1.673.81-2.509 2.432-2.509h2.786c1.622 0 2.433.836 2.433 2.51v18.475c0 1.673-.81 2.51-2.433 2.51h-2.786c-1.622 0-2.433-.837-2.433-2.51zM446.723 31.364V12.888c0-1.673.811-2.509 2.432-2.509h2.477c1.593 0 2.39.836 2.39 2.51v.41l-.045.593h.088c1.563-2.707 3.98-4.06 7.255-4.06 5.455 0 8.182 2.934 8.182 8.805v12.727c0 1.673-.81 2.51-2.433 2.51h-2.786c-1.622 0-2.432-.837-2.432-2.51V20.096c0-2.068-.842-3.102-2.522-3.102-1.622 0-2.853.593-3.693 1.779-.841 1.186-1.26 2.676-1.26 4.47v8.121c0 1.673-.812 2.51-2.433 2.51h-2.788c-1.62 0-2.432-.837-2.432-2.51z"/>
    </g>
    <g>
      <path d="M220.74 29.531V9.586c0-6.39 3.198-9.586 9.596-9.586h42.225c12.097 0 21.898 4.01 29.4 12.026 7.503 8.017 11.255 18.3 11.255 30.848 0 12.665-3.752 23.034-11.255 31.11-7.502 8.074-17.302 12.112-29.4 12.112h-21.287v28.93c0 6.39-3.2 9.586-9.596 9.586h-11.342c-6.398 0-9.596-3.195-9.596-9.585V94.37c5.583-9.538 8.376-20.48 8.376-32.823 0-12.036-2.793-22.708-8.376-32.017zm46.063-3.388h-15.53v33.81h15.007c5.117 0 9.043-1.568 11.777-4.705s4.1-7.262 4.1-12.374c0-5.112-1.337-9.179-4.012-12.2-2.676-3.02-6.457-4.531-11.342-4.531z"/>
      <path d="M96.383 53.858c1.51-14.17 7.305-26.25 17.385-36.236C125.624 5.874 140.812 0 159.33 0c18.52 0 33.706 5.874 45.563 17.622 11.856 11.747 17.784 26.389 17.784 43.926 0 17.986-5.928 32.993-17.784 45.022-11.857 12.028-27.044 18.042-45.563 18.042-18.04 0-32.919-5.707-44.637-17.122l-18.31-53.632zm30.257 7.69c0 10.342 3.077 18.941 9.231 25.799 6.155 6.857 13.974 10.286 23.459 10.286s17.305-3.429 23.459-10.286c6.154-6.858 9.231-15.457 9.231-25.8 0-9.892-3.077-18.126-9.231-24.703-6.154-6.576-13.974-9.864-23.459-9.864s-17.304 3.288-23.459 9.864c-6.154 6.577-9.231 14.811-9.231 24.704zM.775 113.632L36.894 7.843C38.638 2.615 42.244 0 47.712 0h15.703c5.467 0 9.073 2.615 10.818 7.843l36.118 105.79c1.164 3.253 1.018 5.896-.436 7.93-1.454 2.033-3.926 3.05-7.415 3.05H90.984c-5.467 0-9.073-2.673-10.818-8.018L74.93 98.47h-38.91l-5.234 18.125c-1.512 5.345-5.06 8.017-10.644 8.017H8.627c-3.49 0-5.961-1.016-7.415-3.05-1.454-2.033-1.6-4.676-.437-7.93zm42.4-39.562h24.602l-6.979-24.225-5.06-21.436h-.349c-1.861 9.062-3.548 16.208-5.06 21.436L43.175 74.07z"/>
    </g>
  </g>
</svg>